<svg xmlns="http://www.w3.org/2000/svg" viewBox="0 0 512 512"><rect width="512" height="512" rx="120" fill="#f4fbf5"/><rect x="44" y="44" width="424" height="424" rx="96" fill="#2f9e44"/><path d="M150 306c52-8 96-51 103-106 29 15 49 45 49 80 0 50-40 90-90 90-29 0-54-13-71-34 3-11 6-20 9-30z" fill="#eaf7ed"/><path d="M182 230c31-4 58-29 62-61 17 9 29 26 29 46 0 29-24 53-53 53-17 0-31-6-42-18 1-7 2-13 4-20z" fill="#ffffff"/><path d="M316 174l22 22-52 52 20 20 52-52 22 22v-64z" fill="#ffffff"/><path d="M206 160c10 34-1 72-28 96-24-31-29-71-14-106 14 1 28 5 42 10z" fill="#d9efde"/></svg>